<mxfile host="app.diagrams.net" agent="Mozilla/5.0 (Windows NT 10.0; Win64; x64) AppleWebKit/537.36 (KHTML, like Gecko) Chrome/130.0.0.0 Safari/537.36" version="24.8.3">
  <diagram name="Page-1" id="9e2izzzQWu0SrGIOHbec">
    <mxGraphModel dx="1050" dy="522" grid="1" gridSize="10" guides="1" tooltips="1" connect="1" arrows="1" fold="1" page="1" pageScale="1" pageWidth="827" pageHeight="1169" math="0" shadow="0">
      <root>
        <mxCell id="0" />
        <mxCell id="1" parent="0" />
        <mxCell id="MyHe9AeNbJFNaO_dBCYq-2" value="" style="endArrow=classic;html=1;rounded=0;exitX=0.5;exitY=1;exitDx=0;exitDy=0;" edge="1" parent="1">
          <mxGeometry width="50" height="50" relative="1" as="geometry">
            <mxPoint x="390" y="130" as="sourcePoint" />
            <mxPoint x="390" y="160" as="targetPoint" />
          </mxGeometry>
        </mxCell>
        <mxCell id="MyHe9AeNbJFNaO_dBCYq-6" style="edgeStyle=orthogonalEdgeStyle;rounded=0;orthogonalLoop=1;jettySize=auto;html=1;" edge="1" parent="1" source="MyHe9AeNbJFNaO_dBCYq-3">
          <mxGeometry relative="1" as="geometry">
            <mxPoint x="390" y="240" as="targetPoint" />
          </mxGeometry>
        </mxCell>
        <mxCell id="MyHe9AeNbJFNaO_dBCYq-3" value="Initialise loop parameters, time, speed, distance, covered distance, time[], speed[]" style="rounded=1;whiteSpace=wrap;html=1;" vertex="1" parent="1">
          <mxGeometry x="297.5" y="160" width="185" height="50" as="geometry" />
        </mxCell>
        <mxCell id="MyHe9AeNbJFNaO_dBCYq-8" style="edgeStyle=orthogonalEdgeStyle;rounded=0;orthogonalLoop=1;jettySize=auto;html=1;exitX=0.5;exitY=1;exitDx=0;exitDy=0;" edge="1" parent="1" source="MyHe9AeNbJFNaO_dBCYq-7">
          <mxGeometry relative="1" as="geometry">
            <mxPoint x="390" y="310" as="targetPoint" />
          </mxGeometry>
        </mxCell>
        <mxCell id="MyHe9AeNbJFNaO_dBCYq-7" value="Loop on inter-stations distances" style="rounded=1;whiteSpace=wrap;html=1;" vertex="1" parent="1">
          <mxGeometry x="330" y="240" width="120" height="40" as="geometry" />
        </mxCell>
        <mxCell id="MyHe9AeNbJFNaO_dBCYq-9" value="loop if&amp;nbsp;&lt;span style=&quot;background-color: initial;&quot;&gt;distance covered &amp;lt; accelerating distance&lt;/span&gt;" style="rhombus;whiteSpace=wrap;html=1;" vertex="1" parent="1">
          <mxGeometry x="330" y="310" width="120" height="76" as="geometry" />
        </mxCell>
        <mxCell id="MyHe9AeNbJFNaO_dBCYq-13" value="No" style="text;html=1;align=center;verticalAlign=middle;whiteSpace=wrap;rounded=0;" vertex="1" parent="1">
          <mxGeometry x="374" y="404" width="60" height="30" as="geometry" />
        </mxCell>
        <mxCell id="MyHe9AeNbJFNaO_dBCYq-15" value="Read Data" style="shape=parallelogram;perimeter=parallelogramPerimeter;whiteSpace=wrap;html=1;fixedSize=1;" vertex="1" parent="1">
          <mxGeometry x="344" y="100" width="90" height="30" as="geometry" />
        </mxCell>
        <mxCell id="MyHe9AeNbJFNaO_dBCYq-19" value="Yes" style="text;html=1;align=center;verticalAlign=middle;whiteSpace=wrap;rounded=0;" vertex="1" parent="1">
          <mxGeometry x="290" y="320" width="60" height="30" as="geometry" />
        </mxCell>
        <mxCell id="MyHe9AeNbJFNaO_dBCYq-20" value="If speed &amp;lt; maxm speed" style="rhombus;whiteSpace=wrap;html=1;" vertex="1" parent="1">
          <mxGeometry x="217.5" y="314" width="82.5" height="72" as="geometry" />
        </mxCell>
        <mxCell id="MyHe9AeNbJFNaO_dBCYq-25" value="Accelerate, log time and speed" style="rounded=1;whiteSpace=wrap;html=1;" vertex="1" parent="1">
          <mxGeometry x="80" y="334.5" width="102" height="31" as="geometry" />
        </mxCell>
        <mxCell id="MyHe9AeNbJFNaO_dBCYq-30" value="No" style="text;html=1;align=center;verticalAlign=middle;whiteSpace=wrap;rounded=0;" vertex="1" parent="1">
          <mxGeometry x="594" y="386" width="60" height="30" as="geometry" />
        </mxCell>
        <mxCell id="MyHe9AeNbJFNaO_dBCYq-34" value="" style="edgeStyle=orthogonalEdgeStyle;rounded=0;orthogonalLoop=1;jettySize=auto;html=1;" edge="1" parent="1" source="MyHe9AeNbJFNaO_dBCYq-32" target="MyHe9AeNbJFNaO_dBCYq-33">
          <mxGeometry relative="1" as="geometry" />
        </mxCell>
        <mxCell id="MyHe9AeNbJFNaO_dBCYq-32" value="loop if&amp;nbsp;&lt;span style=&quot;background-color: initial;&quot;&gt;distance covered &amp;lt; braking point to destination&lt;/span&gt;" style="rhombus;whiteSpace=wrap;html=1;" vertex="1" parent="1">
          <mxGeometry x="331" y="497" width="120" height="100" as="geometry" />
        </mxCell>
        <mxCell id="MyHe9AeNbJFNaO_dBCYq-37" value="" style="edgeStyle=orthogonalEdgeStyle;rounded=0;orthogonalLoop=1;jettySize=auto;html=1;" edge="1" parent="1" source="MyHe9AeNbJFNaO_dBCYq-33" target="MyHe9AeNbJFNaO_dBCYq-36">
          <mxGeometry relative="1" as="geometry" />
        </mxCell>
        <mxCell id="MyHe9AeNbJFNaO_dBCYq-33" value="Coast, log time and speed" style="whiteSpace=wrap;html=1;" vertex="1" parent="1">
          <mxGeometry x="482.5" y="530.5" width="97.5" height="33" as="geometry" />
        </mxCell>
        <mxCell id="MyHe9AeNbJFNaO_dBCYq-35" value="Yes" style="text;html=1;align=center;verticalAlign=middle;whiteSpace=wrap;rounded=0;" vertex="1" parent="1">
          <mxGeometry x="432" y="508" width="60" height="30" as="geometry" />
        </mxCell>
        <mxCell id="MyHe9AeNbJFNaO_dBCYq-36" value="if speed &amp;lt; 0.8 * maxm speed" style="rhombus;whiteSpace=wrap;html=1;" vertex="1" parent="1">
          <mxGeometry x="613" y="500" width="99" height="95" as="geometry" />
        </mxCell>
        <mxCell id="MyHe9AeNbJFNaO_dBCYq-38" value="No" style="text;html=1;align=center;verticalAlign=middle;whiteSpace=wrap;rounded=0;" vertex="1" parent="1">
          <mxGeometry x="240" y="390" width="60" height="30" as="geometry" />
        </mxCell>
        <mxCell id="MyHe9AeNbJFNaO_dBCYq-40" value="" style="endArrow=classic;html=1;rounded=0;exitX=1;exitY=0.5;exitDx=0;exitDy=0;" edge="1" parent="1" source="MyHe9AeNbJFNaO_dBCYq-36">
          <mxGeometry width="50" height="50" relative="1" as="geometry">
            <mxPoint x="720" y="550" as="sourcePoint" />
            <mxPoint x="390" y="470" as="targetPoint" />
            <Array as="points">
              <mxPoint x="740" y="548" />
              <mxPoint x="740" y="470" />
              <mxPoint x="630" y="470" />
              <mxPoint x="530" y="470" />
            </Array>
          </mxGeometry>
        </mxCell>
        <mxCell id="MyHe9AeNbJFNaO_dBCYq-41" value="" style="endArrow=classic;html=1;rounded=0;entryX=0.5;entryY=0;entryDx=0;entryDy=0;" edge="1" parent="1" target="MyHe9AeNbJFNaO_dBCYq-32">
          <mxGeometry width="50" height="50" relative="1" as="geometry">
            <mxPoint x="390" y="388" as="sourcePoint" />
            <mxPoint x="440" y="338" as="targetPoint" />
          </mxGeometry>
        </mxCell>
        <mxCell id="MyHe9AeNbJFNaO_dBCYq-42" value="No" style="text;html=1;align=center;verticalAlign=middle;whiteSpace=wrap;rounded=0;" vertex="1" parent="1">
          <mxGeometry x="690" y="520" width="60" height="30" as="geometry" />
        </mxCell>
        <mxCell id="MyHe9AeNbJFNaO_dBCYq-43" value="Accelerate, log time and speed" style="rounded=1;whiteSpace=wrap;html=1;" vertex="1" parent="1">
          <mxGeometry x="611.5" y="630" width="102" height="31" as="geometry" />
        </mxCell>
        <mxCell id="MyHe9AeNbJFNaO_dBCYq-44" value="" style="endArrow=classic;html=1;rounded=0;entryX=0.5;entryY=0;entryDx=0;entryDy=0;" edge="1" parent="1" target="MyHe9AeNbJFNaO_dBCYq-43">
          <mxGeometry width="50" height="50" relative="1" as="geometry">
            <mxPoint x="662" y="597" as="sourcePoint" />
            <mxPoint x="660" y="620" as="targetPoint" />
          </mxGeometry>
        </mxCell>
        <mxCell id="MyHe9AeNbJFNaO_dBCYq-49" value="" style="endArrow=classic;html=1;rounded=0;entryX=1;entryY=0.5;entryDx=0;entryDy=0;" edge="1" parent="1" target="MyHe9AeNbJFNaO_dBCYq-20">
          <mxGeometry width="50" height="50" relative="1" as="geometry">
            <mxPoint x="330" y="350" as="sourcePoint" />
            <mxPoint x="380" y="300" as="targetPoint" />
          </mxGeometry>
        </mxCell>
        <mxCell id="MyHe9AeNbJFNaO_dBCYq-52" value="" style="endArrow=classic;html=1;rounded=0;" edge="1" parent="1">
          <mxGeometry width="50" height="50" relative="1" as="geometry">
            <mxPoint x="130" y="335" as="sourcePoint" />
            <mxPoint x="390" y="290" as="targetPoint" />
            <Array as="points">
              <mxPoint x="130" y="290" />
            </Array>
          </mxGeometry>
        </mxCell>
        <mxCell id="MyHe9AeNbJFNaO_dBCYq-53" value="Yes" style="text;html=1;align=center;verticalAlign=middle;whiteSpace=wrap;rounded=0;" vertex="1" parent="1">
          <mxGeometry x="171" y="319" width="60" height="30" as="geometry" />
        </mxCell>
        <mxCell id="MyHe9AeNbJFNaO_dBCYq-54" value="" style="endArrow=classic;html=1;rounded=0;entryX=1;entryY=0.5;entryDx=0;entryDy=0;exitX=0;exitY=0.5;exitDx=0;exitDy=0;" edge="1" parent="1" source="MyHe9AeNbJFNaO_dBCYq-20">
          <mxGeometry width="50" height="50" relative="1" as="geometry">
            <mxPoint x="213" y="350" as="sourcePoint" />
            <mxPoint x="183" y="350" as="targetPoint" />
          </mxGeometry>
        </mxCell>
        <mxCell id="MyHe9AeNbJFNaO_dBCYq-57" value="" style="endArrow=classic;html=1;rounded=0;entryX=0.25;entryY=1;entryDx=0;entryDy=0;" edge="1" parent="1" target="MyHe9AeNbJFNaO_dBCYq-13">
          <mxGeometry width="50" height="50" relative="1" as="geometry">
            <mxPoint x="257" y="387" as="sourcePoint" />
            <mxPoint x="307" y="337" as="targetPoint" />
            <Array as="points">
              <mxPoint x="257" y="430" />
            </Array>
          </mxGeometry>
        </mxCell>
        <mxCell id="MyHe9AeNbJFNaO_dBCYq-58" value="" style="endArrow=classic;html=1;rounded=0;" edge="1" parent="1">
          <mxGeometry width="50" height="50" relative="1" as="geometry">
            <mxPoint x="665" y="662" as="sourcePoint" />
            <mxPoint x="390" y="450" as="targetPoint" />
            <Array as="points">
              <mxPoint x="665" y="680" />
              <mxPoint x="760" y="680" />
              <mxPoint x="760" y="560" />
              <mxPoint x="760" y="450" />
            </Array>
          </mxGeometry>
        </mxCell>
        <mxCell id="MyHe9AeNbJFNaO_dBCYq-59" value="loop if&amp;nbsp;&lt;span style=&quot;background-color: initial;&quot;&gt;distance covered &amp;lt; inter station distance&lt;/span&gt;" style="rhombus;whiteSpace=wrap;html=1;" vertex="1" parent="1">
          <mxGeometry x="329" y="765" width="120" height="100" as="geometry" />
        </mxCell>
        <mxCell id="MyHe9AeNbJFNaO_dBCYq-60" value="" style="endArrow=classic;html=1;rounded=0;entryX=0.5;entryY=0;entryDx=0;entryDy=0;" edge="1" parent="1" target="MyHe9AeNbJFNaO_dBCYq-59">
          <mxGeometry width="50" height="50" relative="1" as="geometry">
            <mxPoint x="390" y="600" as="sourcePoint" />
            <mxPoint x="440" y="550" as="targetPoint" />
          </mxGeometry>
        </mxCell>
        <mxCell id="MyHe9AeNbJFNaO_dBCYq-61" value="Brake, log time and speed" style="rounded=1;whiteSpace=wrap;html=1;" vertex="1" parent="1">
          <mxGeometry x="483" y="801" width="97" height="30" as="geometry" />
        </mxCell>
        <mxCell id="MyHe9AeNbJFNaO_dBCYq-62" value="" style="endArrow=classic;html=1;rounded=0;entryX=0;entryY=0.5;entryDx=0;entryDy=0;" edge="1" parent="1">
          <mxGeometry width="50" height="50" relative="1" as="geometry">
            <mxPoint x="450" y="815" as="sourcePoint" />
            <mxPoint x="483" y="814" as="targetPoint" />
          </mxGeometry>
        </mxCell>
        <mxCell id="MyHe9AeNbJFNaO_dBCYq-63" value="if speed == 0" style="rhombus;whiteSpace=wrap;html=1;" vertex="1" parent="1">
          <mxGeometry x="611.5" y="767.5" width="99" height="95" as="geometry" />
        </mxCell>
        <mxCell id="MyHe9AeNbJFNaO_dBCYq-64" value="" style="endArrow=classic;html=1;rounded=0;" edge="1" parent="1" target="MyHe9AeNbJFNaO_dBCYq-63">
          <mxGeometry width="50" height="50" relative="1" as="geometry">
            <mxPoint x="580" y="815" as="sourcePoint" />
            <mxPoint x="611.5" y="820" as="targetPoint" />
          </mxGeometry>
        </mxCell>
        <mxCell id="MyHe9AeNbJFNaO_dBCYq-65" value="" style="endArrow=classic;html=1;rounded=0;exitX=1;exitY=0.5;exitDx=0;exitDy=0;" edge="1" parent="1" source="MyHe9AeNbJFNaO_dBCYq-63">
          <mxGeometry width="50" height="50" relative="1" as="geometry">
            <mxPoint x="660" y="880" as="sourcePoint" />
            <mxPoint x="460" y="815" as="targetPoint" />
            <Array as="points">
              <mxPoint x="730" y="815" />
              <mxPoint x="730" y="760" />
              <mxPoint x="460" y="750" />
            </Array>
          </mxGeometry>
        </mxCell>
        <mxCell id="MyHe9AeNbJFNaO_dBCYq-67" value="No" style="text;html=1;align=center;verticalAlign=middle;whiteSpace=wrap;rounded=0;" vertex="1" parent="1">
          <mxGeometry x="713.5" y="780" width="60" height="30" as="geometry" />
        </mxCell>
        <mxCell id="MyHe9AeNbJFNaO_dBCYq-68" value="Plot the logged value" style="rounded=1;whiteSpace=wrap;html=1;" vertex="1" parent="1">
          <mxGeometry x="343" y="1050" width="91" height="30" as="geometry" />
        </mxCell>
        <mxCell id="MyHe9AeNbJFNaO_dBCYq-70" value="Is it final terminus?" style="rhombus;whiteSpace=wrap;html=1;" vertex="1" parent="1">
          <mxGeometry x="339.5" y="910" width="99" height="95" as="geometry" />
        </mxCell>
        <mxCell id="MyHe9AeNbJFNaO_dBCYq-71" value="Yes" style="text;html=1;align=center;verticalAlign=middle;whiteSpace=wrap;rounded=0;" vertex="1" parent="1">
          <mxGeometry x="650.5" y="597" width="60" height="30" as="geometry" />
        </mxCell>
        <mxCell id="MyHe9AeNbJFNaO_dBCYq-72" value="" style="endArrow=classic;html=1;rounded=0;exitX=0.5;exitY=1;exitDx=0;exitDy=0;" edge="1" parent="1" source="MyHe9AeNbJFNaO_dBCYq-59" target="MyHe9AeNbJFNaO_dBCYq-70">
          <mxGeometry width="50" height="50" relative="1" as="geometry">
            <mxPoint x="390" y="870" as="sourcePoint" />
            <mxPoint x="440" y="820" as="targetPoint" />
          </mxGeometry>
        </mxCell>
        <mxCell id="MyHe9AeNbJFNaO_dBCYq-73" value="Yes" style="text;html=1;align=center;verticalAlign=middle;whiteSpace=wrap;rounded=0;" vertex="1" parent="1">
          <mxGeometry x="432" y="820" width="60" height="30" as="geometry" />
        </mxCell>
        <mxCell id="MyHe9AeNbJFNaO_dBCYq-74" value="No" style="text;html=1;align=center;verticalAlign=middle;whiteSpace=wrap;rounded=0;" vertex="1" parent="1">
          <mxGeometry x="384" y="640" width="60" height="30" as="geometry" />
        </mxCell>
        <mxCell id="MyHe9AeNbJFNaO_dBCYq-75" value="No" style="text;html=1;align=center;verticalAlign=middle;whiteSpace=wrap;rounded=0;" vertex="1" parent="1">
          <mxGeometry x="343" y="880" width="60" height="30" as="geometry" />
        </mxCell>
        <mxCell id="MyHe9AeNbJFNaO_dBCYq-76" value="" style="endArrow=classic;html=1;rounded=0;exitX=0;exitY=0.5;exitDx=0;exitDy=0;" edge="1" parent="1" source="MyHe9AeNbJFNaO_dBCYq-70">
          <mxGeometry width="50" height="50" relative="1" as="geometry">
            <mxPoint x="339.5" y="960" as="sourcePoint" />
            <mxPoint x="390" y="220" as="targetPoint" />
            <Array as="points">
              <mxPoint x="50" y="958" />
              <mxPoint x="40" y="220" />
            </Array>
          </mxGeometry>
        </mxCell>
        <mxCell id="MyHe9AeNbJFNaO_dBCYq-77" value="" style="endArrow=classic;html=1;rounded=0;entryX=0.5;entryY=0;entryDx=0;entryDy=0;exitX=0.5;exitY=1;exitDx=0;exitDy=0;" edge="1" parent="1" source="MyHe9AeNbJFNaO_dBCYq-70" target="MyHe9AeNbJFNaO_dBCYq-68">
          <mxGeometry width="50" height="50" relative="1" as="geometry">
            <mxPoint x="390" y="1010" as="sourcePoint" />
            <mxPoint x="440" y="960" as="targetPoint" />
          </mxGeometry>
        </mxCell>
        <mxCell id="MyHe9AeNbJFNaO_dBCYq-78" value="No" style="text;html=1;align=center;verticalAlign=middle;whiteSpace=wrap;rounded=0;" vertex="1" parent="1">
          <mxGeometry x="269" y="930" width="60" height="30" as="geometry" />
        </mxCell>
        <mxCell id="MyHe9AeNbJFNaO_dBCYq-79" value="Yes" style="text;html=1;align=center;verticalAlign=middle;whiteSpace=wrap;rounded=0;" vertex="1" parent="1">
          <mxGeometry x="384" y="1010" width="60" height="30" as="geometry" />
        </mxCell>
        <mxCell id="MyHe9AeNbJFNaO_dBCYq-82" value="" style="endArrow=classic;html=1;rounded=0;" edge="1" parent="1">
          <mxGeometry width="50" height="50" relative="1" as="geometry">
            <mxPoint x="661" y="860" as="sourcePoint" />
            <mxPoint x="390" y="880" as="targetPoint" />
            <Array as="points">
              <mxPoint x="660" y="880" />
            </Array>
          </mxGeometry>
        </mxCell>
        <mxCell id="MyHe9AeNbJFNaO_dBCYq-83" value="Yes" style="text;html=1;align=center;verticalAlign=middle;whiteSpace=wrap;rounded=0;" vertex="1" parent="1">
          <mxGeometry x="650.5" y="865" width="60" height="30" as="geometry" />
        </mxCell>
      </root>
    </mxGraphModel>
  </diagram>
</mxfile>
